<mxfile host="app.diagrams.net" agent="Mozilla/5.0 (Windows NT 10.0; Win64; x64) AppleWebKit/537.36 (KHTML, like Gecko) Chrome/127.0.0.0 Safari/537.36" version="24.7.16">
  <diagram name="第 1 页" id="jjPREdlesDDlurfsFnwv">
    <mxGraphModel grid="1" page="1" gridSize="10" guides="1" tooltips="1" connect="1" arrows="1" fold="1" pageScale="1" pageWidth="827" pageHeight="1169" math="0" shadow="0">
      <root>
        <mxCell id="0" />
        <mxCell id="1" parent="0" />
        <mxCell id="4Rts43j3nCSdreQQDyAO-5" value="" style="rounded=1;whiteSpace=wrap;html=1;dashed=1;glass=0;arcSize=2;" vertex="1" parent="1">
          <mxGeometry x="-20" y="300" width="480" height="310" as="geometry" />
        </mxCell>
        <mxCell id="4Rts43j3nCSdreQQDyAO-1" value="" style="html=1;shadow=0;dashed=0;align=center;verticalAlign=middle;shape=mxgraph.arrows2.twoWayArrow;dy=0.65;dx=22;flipV=1;flipH=1;direction=south;" vertex="1" parent="1">
          <mxGeometry x="150" y="80" width="60" height="100" as="geometry" />
        </mxCell>
        <mxCell id="4Rts43j3nCSdreQQDyAO-2" value="客户端" style="text;html=1;align=center;verticalAlign=middle;resizable=0;points=[];autosize=1;strokeColor=none;fillColor=none;fontStyle=1;fontSize=14;fontFamily=Helvetica;" vertex="1" parent="1">
          <mxGeometry x="145" y="40" width="70" height="30" as="geometry" />
        </mxCell>
        <mxCell id="4Rts43j3nCSdreQQDyAO-3" value="HTTPS" style="text;html=1;align=center;verticalAlign=middle;resizable=0;points=[];autosize=1;strokeColor=none;fillColor=none;" vertex="1" parent="1">
          <mxGeometry x="100" y="115" width="60" height="30" as="geometry" />
        </mxCell>
        <mxCell id="4Rts43j3nCSdreQQDyAO-4" value="TCP" style="text;html=1;align=center;verticalAlign=middle;resizable=0;points=[];autosize=1;strokeColor=none;fillColor=none;" vertex="1" parent="1">
          <mxGeometry x="200" y="115" width="50" height="30" as="geometry" />
        </mxCell>
        <mxCell id="4Rts43j3nCSdreQQDyAO-7" value="&lt;font style=&quot;font-size: 14px;&quot;&gt;Nginx&lt;/font&gt;" style="rounded=1;whiteSpace=wrap;html=1;" vertex="1" parent="1">
          <mxGeometry x="2.5" y="200" width="355" height="40" as="geometry" />
        </mxCell>
        <mxCell id="4Rts43j3nCSdreQQDyAO-9" value="1" style="html=1;shadow=0;dashed=0;align=center;verticalAlign=middle;shape=mxgraph.arrows2.twoWayArrow;dy=0.65;dx=22;flipV=1;flipH=1;direction=south;" vertex="1" parent="1">
          <mxGeometry x="40" y="250" width="60" height="120" as="geometry" />
        </mxCell>
        <mxCell id="4Rts43j3nCSdreQQDyAO-10" value="2" style="html=1;shadow=0;dashed=0;align=center;verticalAlign=middle;shape=mxgraph.arrows2.twoWayArrow;dy=0.65;dx=22;flipV=1;flipH=1;direction=south;fillColor=#f5f5f5;strokeColor=#666666;fontColor=#333333;" vertex="1" parent="1">
          <mxGeometry x="260" y="250" width="60" height="120" as="geometry" />
        </mxCell>
        <mxCell id="4Rts43j3nCSdreQQDyAO-13" value="HTTP协议" style="text;html=1;align=center;verticalAlign=middle;whiteSpace=wrap;rounded=0;fontStyle=3" vertex="1" parent="1">
          <mxGeometry x="85" y="300" width="60" height="30" as="geometry" />
        </mxCell>
        <mxCell id="4Rts43j3nCSdreQQDyAO-14" value="私有TCP协议" style="text;html=1;align=center;verticalAlign=middle;whiteSpace=wrap;rounded=0;fontStyle=3" vertex="1" parent="1">
          <mxGeometry x="304" y="300" width="80" height="30" as="geometry" />
        </mxCell>
        <mxCell id="4Rts43j3nCSdreQQDyAO-15" value="&lt;b&gt;&lt;font style=&quot;font-size: 14px;&quot;&gt;鉴权登录&lt;/font&gt;&lt;/b&gt;" style="rounded=1;whiteSpace=wrap;html=1;fillColor=#dae8fc;strokeColor=#6c8ebf;" vertex="1" parent="1">
          <mxGeometry x="10" y="380" width="120" height="60" as="geometry" />
        </mxCell>
        <mxCell id="4Rts43j3nCSdreQQDyAO-16" value="&lt;b&gt;&lt;font style=&quot;font-size: 14px;&quot;&gt;Gate&lt;/font&gt;&lt;/b&gt;&lt;div&gt;&lt;b&gt;&lt;font style=&quot;font-size: 14px;&quot;&gt;(逻辑接入)&lt;/font&gt;&lt;/b&gt;&lt;/div&gt;" style="rounded=1;whiteSpace=wrap;html=1;fillColor=#d5e8d4;strokeColor=#82b366;" vertex="1" parent="1">
          <mxGeometry x="175" y="380" width="230" height="60" as="geometry" />
        </mxCell>
        <mxCell id="4Rts43j3nCSdreQQDyAO-17" value="" style="html=1;shadow=0;dashed=0;align=center;verticalAlign=middle;shape=mxgraph.arrows2.twoWayArrow;dy=0.65;dx=22;fillColor=#f5f5f5;fontColor=#333333;strokeColor=#666666;" vertex="1" parent="1">
          <mxGeometry x="413.5" y="390" width="100" height="40" as="geometry" />
        </mxCell>
        <mxCell id="4Rts43j3nCSdreQQDyAO-18" value="&lt;b&gt;&lt;font style=&quot;font-size: 14px;&quot;&gt;Session&lt;/font&gt;&lt;/b&gt;&lt;div&gt;&lt;span style=&quot;font-size: 14px;&quot;&gt;&lt;b&gt;(会话状态)&lt;/b&gt;&lt;/span&gt;&lt;/div&gt;" style="rounded=1;whiteSpace=wrap;html=1;fillColor=#ffe6cc;strokeColor=#d79b00;" vertex="1" parent="1">
          <mxGeometry x="175" y="530" width="230" height="60" as="geometry" />
        </mxCell>
        <mxCell id="4Rts43j3nCSdreQQDyAO-19" value="" style="html=1;shadow=0;dashed=0;align=center;verticalAlign=middle;shape=mxgraph.arrows2.twoWayArrow;dy=0.65;dx=22;flipV=1;flipH=1;direction=south;fillColor=#f5f5f5;strokeColor=#666666;fontColor=#333333;" vertex="1" parent="1">
          <mxGeometry x="270" y="450" width="40" height="70" as="geometry" />
        </mxCell>
        <mxCell id="4Rts43j3nCSdreQQDyAO-22" value="" style="html=1;shadow=0;dashed=0;align=center;verticalAlign=middle;shape=mxgraph.arrows2.twoWayArrow;dy=0.65;dx=22;fillColor=#f5f5f5;fontColor=#333333;strokeColor=#666666;" vertex="1" parent="1">
          <mxGeometry x="413.5" y="540" width="100" height="40" as="geometry" />
        </mxCell>
        <mxCell id="4Rts43j3nCSdreQQDyAO-23" value="" style="ellipse;shape=cloud;whiteSpace=wrap;html=1;fillColor=#e1d5e7;strokeColor=#9673a6;" vertex="1" parent="1">
          <mxGeometry x="490" y="350" width="330" height="260" as="geometry" />
        </mxCell>
        <mxCell id="4Rts43j3nCSdreQQDyAO-25" value="GameServer" style="rounded=1;whiteSpace=wrap;html=1;" vertex="1" parent="1">
          <mxGeometry x="550" y="430" width="90" height="40" as="geometry" />
        </mxCell>
        <mxCell id="4Rts43j3nCSdreQQDyAO-26" value="MailServer" style="rounded=1;whiteSpace=wrap;html=1;" vertex="1" parent="1">
          <mxGeometry x="680" y="430" width="90" height="40" as="geometry" />
        </mxCell>
        <mxCell id="4Rts43j3nCSdreQQDyAO-27" value="MatchServer" style="rounded=1;whiteSpace=wrap;html=1;" vertex="1" parent="1">
          <mxGeometry x="550" y="510" width="90" height="40" as="geometry" />
        </mxCell>
        <mxCell id="4Rts43j3nCSdreQQDyAO-28" value="..." style="rounded=1;whiteSpace=wrap;html=1;fontStyle=1" vertex="1" parent="1">
          <mxGeometry x="680" y="510" width="90" height="40" as="geometry" />
        </mxCell>
        <mxCell id="4Rts43j3nCSdreQQDyAO-29" value="游戏服务模块" style="text;html=1;align=center;verticalAlign=middle;whiteSpace=wrap;rounded=0;" vertex="1" parent="1">
          <mxGeometry x="620" y="477" width="90" height="30" as="geometry" />
        </mxCell>
      </root>
    </mxGraphModel>
  </diagram>
</mxfile>
